<svg xmlns="http://www.w3.org/2000/svg" version="1.1" xmlns:xlink="http://www.w3.org/1999/xlink" xmlns:svgjs="http://svgjs.com/svgjs" width="1440" height="560" preserveAspectRatio="none" viewBox="0 0 1440 560"><g mask="url(&quot;#SvgjsMask1000&quot;)" fill="none"><rect width="1440" height="560" x="0" y="0" fill="#0e2a47"></rect><path d="M572.94 84.73L584.85 84.73L584.85 96.64L572.94 96.64z" fill="#e73635"></path><path d="M160.58 521.93L194.48 521.93L194.48 555.83L160.58 555.83z" stroke="#d3b714"></path><path d="M351.75 517.1L388.45 517.1L388.45 531.62L351.75 531.62z" fill="#e73635"></path><path d="M1230.19 362.15L1261.47 362.15L1261.47 379.41L1230.19 379.41z" fill="#e73635"></path><path d="M659.33 378.11a48.18 48.18 0 1 0-82.52-49.75z" fill="#d3b714"></path><path d="M265.54 507.18L299.57 507.18L299.57 541.21L265.54 541.21z" stroke="#037b0b"></path><path d="M65.35 18.87 a33.79 33.79 0 1 0 67.58 0 a33.79 33.79 0 1 0 -67.58 0z" stroke="#037b0b"></path><path d="M347.03 78.18a27.09 27.09 0 1 0-10.83 53.09z" stroke="#d3b714"></path><path d="M748.35 162.88L782.2 162.88L782.2 172.96L748.35 172.96z" fill="#037b0b"></path><path d="M566.3 556.17L575.69 556.17L575.69 565.56L566.3 565.56z" stroke="#037b0b"></path><path d="M657.92 536.09a6.88 6.88 0 1 0-2.85-13.46z" fill="#e73635"></path><path d="M711.54 140.85a3.32 3.32 0 1 0-5.84-3.16z" stroke="#037b0b"></path><path d="M852.93 231.65L866.85 231.65L866.85 245.57L852.93 245.57z" fill="#e73635"></path><path d="M267.29 559.13L315.11 559.13L315.11 581.25L267.29 581.25z" fill="#037b0b"></path><path d="M174.9 117.66a9.92 9.92 0 1 0 13.85 14.21z" stroke="#e73635"></path><path d="M1029.61 18.62a14.79 14.79 0 1 0 23.34 18.16z" stroke="#d3b714"></path><path d="M370.81 448.14L413.76 448.14L413.76 491.09L370.81 491.09z" stroke="#e73635"></path><path d="M477.64 511.29a1.6 1.6 0 1 0-2.37-2.15z" stroke="#037b0b"></path><path d="M191.25 158.97L233.16 158.97L233.16 200.88L191.25 200.88z" fill="#e73635"></path><path d="M88.35 64.72L115.22 64.72L115.22 99.69L88.35 99.69z" fill="#e73635"></path><path d="M1030.78 184.1L1065.67 184.1L1065.67 188.44L1030.78 188.44z" fill="#d3b714"></path><path d="M708.87 188.44 a2.06 2.06 0 1 0 4.12 0 a2.06 2.06 0 1 0 -4.12 0z" stroke="#d3b714"></path><path d="M322.27 308.45L374.6 308.45L374.6 360.78L322.27 360.78z" fill="#037b0b"></path><path d="M991.84 185.21L1010.01 185.21L1010.01 203.38L991.84 203.38z" fill="#d3b714"></path><path d="M26.59 433.14L72.85 433.14L72.85 479.4L26.59 479.4z" stroke="#d3b714"></path><path d="M1006.35 66.57 a31.53 31.53 0 1 0 63.06 0 a31.53 31.53 0 1 0 -63.06 0z" stroke="#d3b714"></path><path d="M1383.92 366.28L1388.55 366.28L1388.55 370.73L1383.92 370.73z" stroke="#e73635"></path><path d="M1050.08-0.25a15.38 15.38 0 1 0-9.41 29.28z" fill="#e73635"></path><path d="M1403.33 151.22L1408.94 151.22L1408.94 172.16L1403.33 172.16z" fill="#037b0b"></path><path d="M1312.55 12.61L1326.59 12.61L1326.59 55.79L1312.55 55.79z" stroke="#e73635"></path><path d="M265.96 454.21L302.46 454.21L302.46 467.55L265.96 467.55z" fill="#037b0b"></path><path d="M754.24 533.17 a2.65 2.65 0 1 0 5.3 0 a2.65 2.65 0 1 0 -5.3 0z" stroke="#e73635"></path><path d="M1328.11 394.89 a34.02 34.02 0 1 0 68.04 0 a34.02 34.02 0 1 0 -68.04 0z" fill="#d3b714"></path></g><defs><mask id="SvgjsMask1000"><rect width="1440" height="560" fill="#ffffff"></rect></mask></defs></svg>